<svg preserveAspectRatio="none" overflow="visible" style="display: block;" width="32" height="32" viewBox="0 0 32 32" fill="none" xmlns="http://www.w3.org/2000/svg"><g><path d="M21.5602 10.4393L2.6656 29.3344M21.5602 10.4393C21.9199 10.079 22.2033 9.64993 22.3925 9.17731C22.5817 8.70468 22.6733 8.19863 22.6616 7.68966C22.6499 7.1807 22.5353 6.67937 22.3246 6.21592C22.1139 5.75246 21.8115 5.33649 21.4357 4.9931C21.0599 4.6497 20.6184 4.38599 20.1378 4.21787C19.6573 4.04975 19.1477 3.98071 18.6398 4.01492C18.1318 4.04912 17.6361 4.18586 17.1824 4.41688C16.7288 4.64791 16.3266 4.96843 16.0002 5.35912C15.6738 4.96843 15.2717 4.64791 14.818 4.41688C14.3644 4.18586 13.8686 4.04912 13.3607 4.01492C12.8527 3.98071 12.3431 4.04975 11.8626 4.21787C11.3821 4.38599 10.9406 4.6497 10.5647 4.9931C10.1889 5.33649 9.88653 5.75246 9.67583 6.21592C9.46513 6.67937 9.35049 7.1807 9.33882 7.68966C9.32715 8.19863 9.41869 8.70468 9.60792 9.17731C9.79715 9.64993 10.0801 10.0793 10.4398 10.4396M21.5602 10.4393C21.9204 10.0796 22.3502 9.79688 22.8228 9.60764C23.2954 9.4184 23.8015 9.32686 24.3104 9.33853C24.8194 9.3502 25.3207 9.46485 25.7841 9.67555C26.2476 9.88625 26.6635 10.1886 27.0069 10.5645C27.3503 10.9403 27.614 11.3818 27.7821 11.8624C27.9503 12.3429 28.0193 12.8525 27.9851 13.3605C27.9509 13.8684 27.8141 14.3642 27.5831 14.8179C27.3521 15.2715 27.0316 15.6737 26.6409 16.0001C27.0316 16.3265 27.3521 16.7287 27.5831 17.1824C27.8141 17.636 27.9509 18.1318 27.9851 18.6397C28.0193 19.1477 27.9503 19.6573 27.7821 20.1378C27.614 20.6184 27.3503 21.0599 27.0069 21.4357C26.6635 21.8116 26.2476 22.114 25.7841 22.3247C25.3207 22.5354 24.8194 22.65 24.3104 22.6617C23.8015 22.6734 23.2954 22.5818 22.8228 22.3926C22.3502 22.2034 21.9208 21.9203 21.5606 21.5606M10.4398 10.4396C10.0796 10.0799 9.65021 9.79688 9.1776 9.60764C8.70499 9.4184 8.19895 9.32686 7.68999 9.33853C7.18104 9.3502 6.67973 9.46485 6.21629 9.67555C5.75285 9.88625 5.33689 10.1886 4.9935 10.5645C4.65011 10.9403 4.38641 11.3818 4.2183 11.8624C4.05019 12.3429 3.98115 12.8525 4.01535 13.3605C4.04956 13.8684 4.18629 14.3642 4.41731 14.8179C4.64832 15.2715 4.96884 15.6737 5.35951 16.0001M10.4398 10.4396L21.5606 21.5606M21.5606 21.5606C21.9203 21.9209 22.2033 22.3503 22.3925 22.8229C22.5817 23.2955 22.6733 23.8016 22.6616 24.3106C22.6499 24.8195 22.5353 25.3209 22.3246 25.7843C22.1139 26.2478 21.8115 26.6637 21.4357 27.0071C21.0599 27.3505 20.6184 27.6142 20.1378 27.7824C19.6573 27.9505 19.1477 28.0195 18.6398 27.9853C18.1318 27.9511 17.6361 27.8144 17.1824 27.5833C16.7288 27.3523 16.3266 27.0318 16.0002 26.6411C15.6738 27.0318 15.2717 27.3523 14.818 27.5833C14.3644 27.8144 13.8686 27.9511 13.3607 27.9853C12.8527 28.0195 12.3431 27.9505 11.8626 27.7824C11.3821 27.6142 10.9406 27.3505 10.5647 27.0071C10.1889 26.6637 9.88653 26.2478 9.67583 25.7843C9.46513 25.3209 9.35049 24.8195 9.33882 24.3106C9.32715 23.8016 9.41869 23.2955 9.60792 22.8229C9.79715 22.3503 10.0801 21.9209 10.4398 21.5606C9.7025 22.2379 8.72632 22.5945 7.72606 22.552C6.7258 22.5095 5.78339 22.0713 5.10616 21.3339C4.42893 20.5966 4.07235 19.6204 4.11486 18.6201C4.15737 17.6198 4.59549 16.6774 5.33284 16.0001" stroke="white" stroke-width="2" stroke-linecap="round"/></g></svg>
